<svg width="69" height="69" viewBox="0 0 69 69" fill="none" xmlns="http://www.w3.org/2000/svg">
<path d="M0 34.5C0 20.9312 0 14.1469 3.15566 9.21723C4.71433 6.78235 6.78235 4.71433 9.21723 3.15566C14.1469 0 20.9312 0 34.5 0V0C48.0688 0 54.8531 0 59.7828 3.15566C62.2177 4.71433 64.2857 6.78235 65.8443 9.21723C69 14.1469 69 20.9312 69 34.5V34.5C69 48.0688 69 54.8531 65.8443 59.7828C64.2857 62.2177 62.2177 64.2857 59.7828 65.8443C54.8531 69 48.0688 69 34.5 69V69C20.9312 69 14.1469 69 9.21723 65.8443C6.78235 64.2857 4.71433 62.2177 3.15566 59.7828C0 54.8531 0 48.0688 0 34.5V34.5Z" fill="#181717"/>
<path d="M20.2297 17.0005C19.5256 17.0005 19 17.6268 19 18.335V48.7906C19 49.1854 19.191 49.5276 19.4447 49.7586C19.6988 49.9899 20.0215 50.1382 20.3737 50.1382H33.0111L32.4616 52.4798C32.4265 52.6206 32.4668 52.7695 32.5679 52.8735C32.6692 52.9774 32.8172 53.0215 32.9589 52.99L37.8516 51.878C37.9266 51.8578 37.9947 51.817 38.0478 51.7603L39.6831 50.1382H44.1574C44.8614 50.1382 45.387 49.4987 45.387 48.7906V44.5128L50.4628 39.489C50.9306 39.0267 50.9306 38.264 50.4628 37.8015L47.7941 35.1718C47.5573 34.9379 47.2422 34.8319 46.9437 34.8319C46.645 34.8319 46.3431 34.9379 46.1066 35.1718L33.7046 47.443C33.6479 47.4962 33.6073 47.5642 33.5869 47.6392L33.1944 49.3005H20.3738C20.2783 49.3005 20.12 49.2462 20.0076 49.1437C19.8949 49.0412 19.8373 48.9072 19.8373 48.7904V18.3348C19.8373 18.0201 20.0388 17.8375 20.2298 17.8375H36.9751V24.6535C36.9751 25.3616 37.5008 25.988 38.2051 25.988H41.8156C41.9277 25.9895 42.0358 25.9463 42.1155 25.8674C42.1955 25.7889 42.2402 25.6814 42.2402 25.5693C42.2402 25.4571 42.1955 25.35 42.1155 25.2711C42.0358 25.1926 41.9277 25.1491 41.8156 25.1508H38.2051C38.0141 25.1508 37.8126 24.9683 37.8126 24.6535V17.9684L44.55 24.7452V32.4375C44.5482 32.5497 44.5918 32.6577 44.6703 32.7374C44.7492 32.8172 44.8563 32.8621 44.9685 32.8621C45.0806 32.8621 45.1881 32.8172 45.2666 32.7374C45.3455 32.6577 45.3887 32.5497 45.3872 32.4375V24.5747C45.3898 24.4629 45.3472 24.3545 45.2695 24.274L38.1397 17.1178C38.0591 17.0401 37.9508 16.9975 37.8386 17.0001L20.2297 17.0005ZM24.9918 20.9515C24.7606 20.9623 24.5818 21.1585 24.5927 21.3898C24.6035 21.6208 24.7997 21.7995 25.031 21.7887H29.5312C29.6433 21.7901 29.7514 21.7469 29.8311 21.6681C29.9108 21.5895 29.9558 21.4821 29.9558 21.3699C29.9558 21.2581 29.9108 21.1506 29.8311 21.0718C29.7514 20.9932 29.6433 20.9497 29.5312 20.9515H25.031C25.0178 20.9509 25.0047 20.9509 24.9918 20.9515L24.9918 20.9515ZM24.9524 24.9807C24.7211 25.0023 24.5515 25.2073 24.5731 25.4385C24.5947 25.6698 24.7997 25.8398 25.031 25.8179H33.6518C33.7639 25.8196 33.872 25.7761 33.9517 25.6976C34.0314 25.6187 34.0764 25.5115 34.0764 25.3994C34.0764 25.2873 34.0314 25.1798 33.9517 25.1013C33.872 25.0224 33.7639 24.9792 33.6518 24.9806H25.031C25.005 24.9783 24.9787 24.9783 24.9524 24.9806V24.9807ZM24.9918 28.9971C24.7606 29.0079 24.5818 29.2041 24.5927 29.4354C24.6035 29.6664 24.7997 29.8451 25.031 29.8343H39.4603C39.5725 29.8357 39.6805 29.7925 39.7602 29.7137C39.8403 29.6351 39.8849 29.5277 39.8849 29.4155C39.8849 29.3037 39.8403 29.1962 39.7602 29.1174C39.6805 29.0388 39.5725 28.9953 39.4603 28.9971H25.031C25.0178 28.9965 25.0047 28.9965 24.9918 28.9971L24.9918 28.9971ZM24.9524 33.0263C24.7211 33.0479 24.5515 33.2529 24.5731 33.4841C24.5947 33.7154 24.7997 33.8854 25.031 33.8635H33.6518C33.7639 33.8652 33.872 33.8217 33.9517 33.7432C34.0314 33.6643 34.0764 33.5571 34.0764 33.445C34.0764 33.3329 34.0314 33.2254 33.9517 33.1469C33.872 33.068 33.7639 33.0248 33.6518 33.0263H25.031C25.005 33.0239 24.9787 33.0239 24.9524 33.0263V33.0263ZM46.9441 35.669C47.046 35.669 47.1357 35.6912 47.2057 35.7604L49.8745 38.39C50.0208 38.5346 50.0208 38.7559 49.8745 38.9002L37.9307 50.7139L34.7516 47.5741L46.6961 35.7604C46.7661 35.6912 46.8426 35.669 46.9446 35.669L46.9441 35.669ZM24.992 37.0427C24.7608 37.0535 24.582 37.2497 24.5929 37.481C24.6037 37.712 24.7999 37.8907 25.0312 37.8799H39.4605C39.5727 37.8813 39.6807 37.8381 39.7604 37.7593C39.8405 37.6807 39.8851 37.5733 39.8851 37.4611C39.8851 37.3493 39.8405 37.2418 39.7604 37.163C39.6807 37.0844 39.5727 37.0409 39.4605 37.0427H25.0312C25.018 37.0421 25.0049 37.0421 24.992 37.0427L24.992 37.0427ZM24.9526 41.0719C24.7213 41.0935 24.5517 41.2985 24.5733 41.5297C24.5949 41.761 24.7999 41.931 25.0312 41.9091H34.9475C35.0597 41.9108 35.1677 41.8673 35.2474 41.7888C35.3274 41.7099 35.3721 41.6027 35.3721 41.4906C35.3721 41.3785 35.3274 41.271 35.2474 41.1925C35.1677 41.1136 35.0597 41.0704 34.9475 41.0719H25.0312C25.0052 41.0695 24.9789 41.0695 24.9526 41.0719V41.0719ZM24.9526 45.1014C24.7213 45.123 24.5517 45.328 24.5733 45.5592C24.5949 45.7902 24.7999 45.9602 25.0312 45.9386H29.466C29.5781 45.94 29.6862 45.8968 29.7659 45.818C29.8456 45.7394 29.8906 45.6319 29.8906 45.5198C29.8906 45.4077 29.8456 45.3005 29.7659 45.2217C29.6862 45.1431 29.5781 45.0996 29.466 45.1013H25.0312C25.0052 45.0987 24.9789 45.0987 24.9526 45.1013V45.1014ZM44.5499 45.3367V48.7904C44.5499 49.1052 44.3484 49.3005 44.1574 49.3005H40.5335L44.5499 45.3367ZM34.3061 48.2934L37.1842 51.1583L33.4297 52.0218L34.3061 48.2934Z" fill="#D9CECE"/>
</svg>
