<svg width="69" height="69" viewBox="0 0 69 69" fill="none" xmlns="http://www.w3.org/2000/svg">
<path d="M0 34.5C0 20.9312 0 14.1469 3.15566 9.21723C4.71433 6.78235 6.78235 4.71433 9.21723 3.15566C14.1469 0 20.9312 0 34.5 0V0C48.0688 0 54.8531 0 59.7828 3.15566C62.2177 4.71433 64.2857 6.78235 65.8443 9.21723C69 14.1469 69 20.9312 69 34.5V34.5C69 48.0688 69 54.8531 65.8443 59.7828C64.2857 62.2177 62.2177 64.2857 59.7828 65.8443C54.8531 69 48.0688 69 34.5 69V69C20.9312 69 14.1469 69 9.21723 65.8443C6.78235 64.2857 4.71433 62.2177 3.15566 59.7828C0 54.8531 0 48.0688 0 34.5V34.5Z" fill="#181717"/>
<path d="M31.0002 37.9998H17.6669C17.2669 37.9998 17 38.2663 17 38.6667V52.0001C17 52.4 17.2665 52.6669 17.6669 52.6669H31.0002C31.4002 52.6669 31.6671 52.4005 31.6671 52.0001V38.6667C31.6671 38.2667 31.4002 37.9998 31.0002 37.9998ZM30.3334 51.3332H18.3333V39.3332H30.3334V51.3332ZM31.0002 17.9997H17.6669C17.2669 17.9997 17 18.2662 17 18.6666V32C17 32.3999 17.2665 32.6668 17.6669 32.6668H31.0002C31.4002 32.6668 31.6671 32.4004 31.6671 32V18.6666C31.6671 18.2667 31.4002 17.9997 31.0002 17.9997ZM30.3334 31.3331H18.3333V19.3331H30.3334V31.3331ZM52.8002 25.5332L44.4668 17.1998C44.2003 16.9334 43.7999 16.9334 43.5335 17.1998L35.2001 25.5332C34.9341 25.7997 34.9341 26.2001 35.2001 26.4665L43.5335 34.7999C43.793 35.0585 44.1994 35.0673 44.4668 34.7999L52.8002 26.4665C53.0666 26.2001 53.0666 25.8001 52.8002 25.5332V25.5332ZM43.9999 33.4002L36.5998 26.0001L43.9999 18.6001L51.3999 26.0001L43.9999 33.4002ZM51 37.9998H37.6666C37.2667 37.9998 36.9998 38.2663 36.9998 38.6667V52.0001C36.9998 52.4 37.2662 52.6669 37.6666 52.6669H51C51.4 52.6669 51.6669 52.4005 51.6669 52.0001V38.6667C51.6669 38.2667 51.4 37.9998 51 37.9998ZM50.3332 51.3332H38.3331V39.3332H50.3332V51.3332Z" fill="white"/>
</svg>
