<svg width="69" height="69" viewBox="0 0 69 69" fill="none" xmlns="http://www.w3.org/2000/svg">
<path d="M0 34.5C0 20.9312 0 14.1469 3.15566 9.21723C4.71433 6.78235 6.78235 4.71433 9.21723 3.15566C14.1469 0 20.9312 0 34.5 0V0C48.0688 0 54.8531 0 59.7828 3.15566C62.2177 4.71433 64.2857 6.78235 65.8443 9.21723C69 14.1469 69 20.9312 69 34.5V34.5C69 48.0688 69 54.8531 65.8443 59.7828C64.2857 62.2177 62.2177 64.2857 59.7828 65.8443C54.8531 69 48.0688 69 34.5 69V69C20.9312 69 14.1469 69 9.21723 65.8443C6.78235 64.2857 4.71433 62.2177 3.15566 59.7828C0 54.8531 0 48.0688 0 34.5V34.5Z" fill="#181717"/>
<path d="M52.6415 33.7881C52.6415 31.15 50.8854 28.895 48.3993 28.2475C48.5389 27.7255 48.6093 27.1933 48.6093 26.6594C48.6093 23.3824 46.0675 20.6949 42.8242 20.5061C42.3814 18.4831 40.5944 17.0008 38.5223 17.0008C37.3105 17.0008 36.1498 17.5127 35.3206 18.3892C34.4914 17.5122 33.3299 17 32.1189 17C30.0486 17 28.2627 18.4796 27.8186 20.4997C24.5994 20.6669 22.0316 23.3655 22.0316 26.6584C22.0316 27.1917 22.1021 27.7239 22.2416 28.2464C19.7561 28.894 18 31.149 18 33.7876C18 35.8841 19.1442 37.8105 20.9495 38.8108C20.712 39.423 20.5924 40.0643 20.5924 40.7229C20.5924 43.2925 22.3807 45.4435 24.8264 45.9187C24.7555 46.289 24.7196 46.6604 24.7196 47.0274C24.7196 50.321 27.3712 53 30.6315 53C31.3787 53 32.1076 52.8601 32.8004 52.5833C33.5964 52.8601 34.4157 53 35.2391 53C35.2538 53 35.2666 52.9929 35.2808 52.991C35.2949 52.9929 35.3077 53 35.3224 53C35.3365 53 35.3488 52.9929 35.363 52.9918C35.3771 52.9929 35.3889 53 35.4036 53C36.2294 53 37.0499 52.8601 37.8428 52.5841C38.5361 52.8603 39.264 53 40.011 53C43.2708 53 45.9224 50.3209 45.9224 47.0274C45.9224 46.6612 45.8865 46.29 45.8155 45.9187C48.2618 45.4446 50.0501 43.293 50.0501 40.7229C50.0501 40.0645 49.9305 39.4235 49.693 38.8108C51.4973 37.8114 52.6414 35.8847 52.6414 33.7881L52.6415 33.7881ZM32.6141 51.699C31.9836 51.9728 31.3162 52.1109 30.6304 52.1109C27.8558 52.1109 25.5983 49.83 25.5983 47.0272C25.5983 46.5785 25.6617 46.1216 25.7866 45.6666C25.8211 45.5404 25.7989 45.4047 25.7256 45.2962C25.6523 45.1877 25.5349 45.1179 25.4053 45.106C23.1625 44.8867 21.4711 43.0024 21.4711 40.7233C21.4711 40.0547 21.6201 39.4071 21.9144 38.7979C21.966 38.6894 21.973 38.5651 21.9325 38.4524C21.8919 38.3391 21.8081 38.2473 21.7002 38.1976C19.9866 37.4143 18.8784 35.6834 18.8784 33.7882C18.8784 31.4155 20.5599 29.4097 22.8766 29.0189C23.0051 28.997 23.1177 28.9194 23.1834 28.8057C23.2497 28.6925 23.2625 28.5549 23.2185 28.4311C23.0138 27.8523 22.9101 27.2565 22.9101 26.6592C22.9101 23.7489 25.2537 21.3809 28.1247 21.3809C28.1365 21.3814 28.1744 21.3838 28.1862 21.3838C28.4067 21.3838 28.5934 21.219 28.6227 20.9981C28.8562 19.2256 30.3586 17.8894 32.1176 17.8894C33.1909 17.8894 34.2109 18.3931 34.8807 19.237V25.815H31.0188C30.8158 24.8639 29.9787 24.1481 28.9783 24.1481C27.8265 24.1481 26.8887 25.0951 26.8887 26.2594C26.8887 27.424 27.826 28.3708 28.9783 28.3708C29.9796 28.3708 30.8164 27.655 31.0188 26.7039H34.8807V32.4816H26.5773C26.3743 31.5305 25.5372 30.8147 24.5363 30.8147C23.3845 30.8147 22.4466 31.7617 22.4466 32.926C22.4466 34.0906 23.3839 35.0374 24.5363 35.0374C25.5376 35.0374 26.3744 34.3216 26.5773 33.3705H34.8807V39.5927H31.0211C30.8182 38.6416 29.9811 37.9258 28.9802 37.9258C27.8283 37.9258 26.8905 38.8728 26.8905 40.0371C26.8905 41.2016 27.8278 42.1485 28.9802 42.1485C29.9814 42.1485 30.8182 41.4332 31.0211 40.4816H34.8816L34.8813 46.8518H32.6702C32.4672 45.9008 31.6301 45.185 30.6292 45.185C29.4774 45.185 28.5395 46.132 28.5395 47.2963C28.5395 48.4608 29.4768 49.4077 30.6292 49.4077C31.6305 49.4077 32.4673 48.6924 32.6702 47.7408H34.8813V52.0952C34.2257 52.0585 33.574 51.9275 32.9393 51.6905C32.834 51.6519 32.7178 51.6542 32.6141 51.6992L32.6141 51.699ZM30.1882 26.2592C30.1882 26.933 29.6457 27.4817 28.9783 27.4817C28.3109 27.4817 27.7684 26.9336 27.7684 26.2592C27.7684 25.5849 28.3109 25.0367 28.9783 25.0367C29.6457 25.0367 30.1882 25.5854 30.1882 26.2592ZM25.7455 32.9258C25.7455 33.5996 25.203 34.1483 24.5356 34.1483C23.8682 34.1483 23.3262 33.5996 23.3262 32.9258C23.3262 32.252 23.8687 31.7033 24.5361 31.7033C25.2035 31.7033 25.7455 32.252 25.7455 32.9258ZM30.1893 40.0368C30.1893 40.7112 29.6468 41.2593 28.9794 41.2593C28.312 41.2593 27.7694 40.7112 27.7694 40.0368C27.7694 39.3625 28.3119 38.8143 28.9794 38.8143C29.6468 38.8143 30.1893 39.3625 30.1893 40.0368ZM31.8385 47.2962C31.8385 47.9705 31.296 48.5186 30.6286 48.5186C29.9612 48.5186 29.4187 47.9705 29.4187 47.2962C29.4187 46.6218 29.9612 46.0737 30.6286 46.0737C31.296 46.0737 31.8385 46.6218 31.8385 47.2962ZM48.9402 38.1974C48.831 38.2472 48.7477 38.3384 48.7074 38.4522C48.6676 38.5649 48.6739 38.6892 48.7263 38.7977C49.0206 39.4062 49.1696 40.0541 49.1696 40.7231C49.1696 43.0035 47.4782 44.887 45.2353 45.1058C45.1057 45.1183 44.9889 45.1881 44.9151 45.2961C44.8418 45.4045 44.819 45.5397 44.8541 45.6664C44.979 46.1228 45.0418 46.5802 45.0418 47.027C45.0418 49.8299 42.7843 52.1108 40.0103 52.1108C39.324 52.1108 38.6566 51.9727 38.0266 51.6994C37.9222 51.655 37.8062 51.6515 37.7006 51.6912C37.0691 51.9264 36.4174 52.0573 35.761 52.0946L35.7607 47.7405H37.9672C38.1701 48.6915 39.0064 49.4073 40.0076 49.4073C41.1601 49.4073 42.0973 48.4603 42.0973 47.296C42.0973 46.1315 41.1599 45.1846 40.0076 45.1846C39.0063 45.1846 38.1695 45.8999 37.9672 46.8515H35.7607V40.4813H39.6193C39.8222 41.4323 40.6585 42.1481 41.6597 42.1481C42.8122 42.1481 43.7494 41.2011 43.7494 40.0368C43.7494 38.8723 42.812 37.9254 41.6597 37.9254C40.6584 37.9254 39.8216 38.6407 39.6193 39.5923H35.7607V33.3702H44.0595C44.2624 34.3212 45.0987 35.0371 46.0999 35.0371C47.2525 35.0371 48.1896 34.09 48.1896 32.9257C48.1896 31.7612 47.2523 30.8144 46.0999 30.8144C45.0987 30.8144 44.2619 31.5302 44.0595 32.4812H35.7607L35.7604 26.7036H39.6172C39.8201 27.6546 40.6564 28.3705 41.6576 28.3705C42.8102 28.3705 43.7473 27.4234 43.7473 26.2591C43.7473 25.0946 42.81 24.1477 41.6576 24.1477C40.6563 24.1477 39.8196 24.8636 39.6172 25.8146H35.7604V19.2335C36.4307 18.392 37.449 17.8896 38.5212 17.8896C40.2802 17.8896 41.7834 19.2258 42.0166 20.9982C42.0459 21.2194 42.2847 21.381 42.5052 21.381C45.3856 21.381 47.7285 23.749 47.7285 26.6593C47.7285 27.2567 47.6248 27.8527 47.42 28.4304C47.376 28.5542 47.3883 28.6918 47.4551 28.8056C47.5208 28.9188 47.6334 28.9971 47.762 29.0188C50.0786 29.4092 51.7606 31.4153 51.7606 33.788C51.7609 35.6829 50.6536 37.4139 48.9399 38.1972L48.9402 38.1974ZM38.7981 47.2962C38.7981 46.6218 39.3406 46.0737 40.008 46.0737C40.6754 46.0737 41.218 46.6218 41.218 47.2962C41.218 47.9705 40.6755 48.5186 40.008 48.5186C39.3406 48.5186 38.7981 47.9705 38.7981 47.2962ZM40.4505 40.0368C40.4505 39.3625 40.993 38.8143 41.6604 38.8143C42.3278 38.8143 42.8704 39.3625 42.8704 40.0368C42.8704 40.7112 42.3278 41.2593 41.6604 41.2593C40.993 41.2593 40.4505 40.7112 40.4505 40.0368ZM44.8909 32.9258C44.8909 32.252 45.4334 31.7033 46.1008 31.7033C46.7682 31.7033 47.3107 32.2515 47.3107 32.9258C47.3107 33.6002 46.7682 34.1483 46.1008 34.1483C45.4334 34.1483 44.8909 33.5996 44.8909 32.9258ZM40.4487 26.2592C40.4487 25.5854 40.9912 25.0367 41.6586 25.0367C42.326 25.0367 42.8686 25.5849 42.8686 26.2592C42.8686 26.9336 42.326 27.4817 41.6586 27.4817C40.9912 27.4817 40.4487 26.933 40.4487 26.2592Z" fill="white"/>
</svg>
