<svg width="69" height="69" viewBox="0 0 69 69" fill="none" xmlns="http://www.w3.org/2000/svg">
<path d="M0 34.5C0 20.9312 0 14.1469 3.15566 9.21723C4.71433 6.78235 6.78235 4.71433 9.21723 3.15566C14.1469 0 20.9312 0 34.5 0V0C48.0688 0 54.8531 0 59.7828 3.15566C62.2177 4.71433 64.2857 6.78235 65.8443 9.21723C69 14.1469 69 20.9312 69 34.5V34.5C69 48.0688 69 54.8531 65.8443 59.7828C64.2857 62.2177 62.2177 64.2857 59.7828 65.8443C54.8531 69 48.0688 69 34.5 69V69C20.9312 69 14.1469 69 9.21723 65.8443C6.78235 64.2857 4.71433 62.2177 3.15566 59.7828C0 54.8531 0 48.0688 0 34.5V34.5Z" fill="#181717"/>
<path d="M26.0299 17.0008C23.2607 17.0008 21.0069 19.2546 21.0069 22.0239C21.0069 22.2551 21.1943 22.4426 21.4256 22.4426H27.2598C26.9614 25.759 25.3966 30.5327 23.8978 35.2232C22.3596 40.0361 20.8872 44.7485 21.0068 47.9769V47.9898C21.0141 50.7532 23.2654 53 26.0299 53H43.6109C46.3802 53 48.634 50.7462 48.634 47.9769C48.634 47.7457 48.4465 47.5582 48.2153 47.5582H42.3942C42.6322 44.3794 44.1061 39.7963 45.573 35.2485C47.1699 30.297 48.7545 25.3853 48.634 22.0231C48.6337 22.0193 48.634 22.0141 48.634 22.0103V21.9971C48.6196 19.2399 46.3711 16.9998 43.6109 17L26.0299 17.0008ZM26.0299 17.8379H40.8378C39.6427 18.7194 38.8096 20.0991 38.6662 21.6054H21.9224C22.1405 19.4955 23.8609 17.8382 26.0298 17.8379H26.0299ZM42.6168 17.8379H43.611C45.9277 17.8379 47.797 19.7073 47.797 22.0239C47.7967 22.0283 47.7967 22.0326 47.797 22.037C47.9141 25.0944 46.3753 30.0389 44.7752 35.0008C43.1751 39.9626 41.5181 44.9454 41.5181 48.3958C41.5181 49.6491 41.683 50.7128 42.2112 51.5093C42.3797 51.7633 42.5949 51.9835 42.839 52.1634H26.0294C23.7128 52.1634 21.8434 50.294 21.8434 47.9774C21.8437 47.9686 21.8437 47.9599 21.8434 47.9511C21.731 45.0172 23.1571 40.2841 24.6953 35.4717C26.2037 30.752 27.8009 25.9569 28.0964 22.4429H39.006C39.2373 22.4429 39.4247 22.2555 39.4247 22.0242C39.4247 20.2028 40.9095 18.4053 42.5771 17.8514C42.5905 17.8476 42.6036 17.8435 42.6165 17.8383L42.6168 17.8379ZM30.556 26.2098C30.3247 26.2317 30.1551 26.4367 30.1767 26.6677C30.1983 26.8989 30.4033 27.0689 30.6345 27.0473H44.0296C44.1417 27.0487 44.2498 27.0052 44.3295 26.9267C44.4092 26.8481 44.4542 26.7407 44.4542 26.6285C44.4542 26.5164 44.4092 26.409 44.3295 26.3304C44.2498 26.2519 44.1417 26.2084 44.0296 26.2098H30.6345C30.6086 26.2075 30.5823 26.2075 30.556 26.2098V26.2098ZM29.3001 30.3958C29.0692 30.4177 28.8992 30.6227 28.9208 30.8536C28.9425 31.0849 29.1474 31.2548 29.3787 31.2332H42.7737C42.8859 31.2347 42.9939 31.1912 43.0736 31.1126C43.1536 31.0341 43.1983 30.9266 43.1983 30.8145C43.1983 30.7024 43.1536 30.5949 43.0736 30.5164C42.9939 30.4378 42.8859 30.3943 42.7737 30.3958H29.3787C29.3527 30.3935 29.3264 30.3935 29.3001 30.3958V30.3958ZM28.0446 34.5818C27.8133 34.6037 27.6434 34.8086 27.665 35.0396C27.6869 35.2709 27.8919 35.4408 28.1228 35.4192H41.5179C41.6297 35.4206 41.7378 35.3771 41.8175 35.2986C41.8975 35.22 41.9424 35.1126 41.9424 35.0005C41.9424 34.8883 41.8975 34.7809 41.8175 34.7023C41.7378 34.6238 41.6297 34.5803 41.5179 34.5817H28.1228C28.0968 34.5794 28.0706 34.5794 28.0446 34.5817V34.5818ZM26.7887 38.7677C26.5575 38.7896 26.3875 38.9946 26.4094 39.2256C26.431 39.4568 26.636 39.6267 26.8673 39.6051H40.2623C40.3744 39.6066 40.4822 39.5631 40.5622 39.4845C40.6419 39.406 40.6869 39.2985 40.6869 39.1864C40.6869 39.0743 40.6419 38.9668 40.5622 38.8883C40.4822 38.8097 40.3744 38.7662 40.2623 38.7677H26.8673C26.841 38.7654 26.8147 38.7654 26.7887 38.7677V38.7677ZM25.5329 42.9537C25.3016 42.9756 25.1319 43.1805 25.1536 43.4115C25.1752 43.6428 25.3801 43.8127 25.6114 43.7911H39.0065C39.1186 43.7926 39.2266 43.749 39.3063 43.6705C39.386 43.592 39.431 43.4845 39.431 43.3724C39.431 43.2603 39.386 43.1528 39.3063 43.0743C39.2266 42.9957 39.1186 42.9522 39.0065 42.9537H25.6114C25.5851 42.9513 25.5588 42.9513 25.5329 42.9537V42.9537ZM25.1141 47.1396C24.8832 47.1615 24.7132 47.3665 24.7348 47.5975C24.7565 47.8287 24.9614 47.9987 25.1927 47.977H38.5877C38.6999 47.9785 38.8079 47.935 38.8876 47.8565C38.9676 47.7779 39.0123 47.6705 39.0123 47.5583C39.0123 47.4462 38.9676 47.3388 38.8876 47.2602C38.8079 47.1817 38.6999 47.1382 38.5877 47.1396H25.1927C25.1667 47.1373 25.1404 47.1373 25.1141 47.1396V47.1396ZM42.355 48.3955H47.7183C47.5478 50.0326 46.4715 51.3986 44.9844 51.9274C44.9459 51.9175 44.9062 51.9131 44.8665 51.9143C43.8422 51.9143 43.295 51.6068 42.9175 51.038C42.5402 50.4689 42.3551 49.569 42.3551 48.3954L42.355 48.3955Z" fill="#D9CECE"/>
</svg>
