<svg width="69" height="69" viewBox="0 0 69 69" fill="none" xmlns="http://www.w3.org/2000/svg">
<path d="M0 34.5C0 20.9312 0 14.1469 3.15566 9.21723C4.71433 6.78235 6.78235 4.71433 9.21723 3.15566C14.1469 0 20.9312 0 34.5 0V0C48.0688 0 54.8531 0 59.7828 3.15566C62.2177 4.71433 64.2857 6.78235 65.8443 9.21723C69 14.1469 69 20.9312 69 34.5V34.5C69 48.0688 69 54.8531 65.8443 59.7828C64.2857 62.2177 62.2177 64.2857 59.7828 65.8443C54.8531 69 48.0688 69 34.5 69V69C20.9312 69 14.1469 69 9.21723 65.8443C6.78235 64.2857 4.71433 62.2177 3.15566 59.7828C0 54.8531 0 48.0688 0 34.5V34.5Z" fill="#181717"/>
</svg>
