<svg width="32" height="32" viewBox="0 0 32 32" fill="none" xmlns="http://www.w3.org/2000/svg">
<circle cx="16" cy="16" r="16" fill="#7900C0"/>
<path d="M12.4541 14.6436H13.7197C14.2119 14.6436 14.6191 14.5586 14.9414 14.3887C15.2695 14.2188 15.5127 13.9844 15.6709 13.6855C15.8291 13.3867 15.9082 13.0439 15.9082 12.6572C15.9082 12.2529 15.835 11.9072 15.6885 11.6201C15.5479 11.3271 15.3311 11.1016 15.0381 10.9434C14.751 10.7852 14.3848 10.7061 13.9395 10.7061C13.5645 10.7061 13.2246 10.7822 12.9199 10.9346C12.6211 11.0811 12.3838 11.292 12.208 11.5674C12.0322 11.8369 11.9443 12.1592 11.9443 12.5342H9.81738C9.81738 11.8545 9.99609 11.251 10.3535 10.7236C10.7109 10.1963 11.1973 9.7832 11.8125 9.48438C12.4336 9.17969 13.1309 9.02734 13.9043 9.02734C14.7305 9.02734 15.4512 9.16504 16.0664 9.44043C16.6875 9.70996 17.1709 10.1143 17.5166 10.6533C17.8623 11.1924 18.0352 11.8604 18.0352 12.6572C18.0352 13.0205 17.9502 13.3896 17.7803 13.7646C17.6104 14.1396 17.3584 14.4824 17.0244 14.793C16.6904 15.0977 16.2744 15.3467 15.7764 15.54C15.2783 15.7275 14.7012 15.8213 14.0449 15.8213H12.4541V14.6436ZM12.4541 16.2959V15.1357H14.0449C14.7949 15.1357 15.4336 15.2236 15.9609 15.3994C16.4941 15.5752 16.9277 15.8184 17.2617 16.1289C17.5957 16.4336 17.8389 16.7822 17.9912 17.1748C18.1494 17.5674 18.2285 17.9834 18.2285 18.4229C18.2285 19.0205 18.1201 19.5537 17.9033 20.0225C17.6924 20.4854 17.3906 20.8779 16.998 21.2002C16.6055 21.5225 16.1455 21.7656 15.6182 21.9297C15.0967 22.0938 14.5283 22.1758 13.9131 22.1758C13.3623 22.1758 12.835 22.0996 12.3311 21.9473C11.8271 21.7949 11.376 21.5693 10.9775 21.2705C10.5791 20.9658 10.2627 20.5879 10.0283 20.1367C9.7998 19.6797 9.68555 19.1523 9.68555 18.5547H11.8037C11.8037 18.9355 11.8916 19.2725 12.0674 19.5654C12.249 19.8525 12.501 20.0781 12.8232 20.2422C13.1514 20.4062 13.5264 20.4883 13.9482 20.4883C14.3936 20.4883 14.7773 20.4092 15.0996 20.251C15.4219 20.0928 15.668 19.8584 15.8379 19.5479C16.0137 19.2373 16.1016 18.8623 16.1016 18.4229C16.1016 17.9248 16.0049 17.5205 15.8115 17.21C15.6182 16.8994 15.3428 16.6709 14.9854 16.5244C14.6279 16.3721 14.2061 16.2959 13.7197 16.2959H12.4541Z" fill="black"/>
</svg>
