<svg width="32" height="32" viewBox="0 0 32 32" fill="none" xmlns="http://www.w3.org/2000/svg">
<circle cx="16" cy="16" r="16" fill="#7900C0"/>
<path d="M20.5449 20.3125V22H11.9668V20.5498L16.1328 16.0059C16.5898 15.4902 16.9502 15.0449 17.2139 14.6699C17.4775 14.2949 17.6621 13.958 17.7676 13.6592C17.8789 13.3545 17.9346 13.0586 17.9346 12.7715C17.9346 12.3672 17.8584 12.0127 17.7061 11.708C17.5596 11.3975 17.3428 11.1543 17.0557 10.9785C16.7686 10.7969 16.4199 10.7061 16.0098 10.7061C15.5352 10.7061 15.1367 10.8086 14.8145 11.0137C14.4922 11.2188 14.249 11.5029 14.085 11.8662C13.9209 12.2236 13.8389 12.6338 13.8389 13.0967H11.7207C11.7207 12.3525 11.8906 11.6729 12.2305 11.0576C12.5703 10.4365 13.0625 9.94434 13.707 9.58105C14.3516 9.21191 15.1279 9.02734 16.0361 9.02734C16.8916 9.02734 17.6182 9.1709 18.2158 9.45801C18.8135 9.74512 19.2676 10.1523 19.5781 10.6797C19.8945 11.207 20.0527 11.8311 20.0527 12.5518C20.0527 12.9502 19.9883 13.3457 19.8594 13.7383C19.7305 14.1309 19.5459 14.5234 19.3057 14.916C19.0713 15.3027 18.793 15.6924 18.4707 16.085C18.1484 16.4717 17.7939 16.8643 17.4072 17.2627L14.6387 20.3125H20.5449Z" fill="black"/>
</svg>
