<svg width="69" height="69" viewBox="0 0 69 69" fill="none" xmlns="http://www.w3.org/2000/svg">
<path d="M0 34.5C0 20.9312 0 14.1469 3.15566 9.21723C4.71433 6.78235 6.78235 4.71433 9.21723 3.15566C14.1469 0 20.9312 0 34.5 0V0C48.0688 0 54.8531 0 59.7828 3.15566C62.2177 4.71433 64.2857 6.78235 65.8443 9.21723C69 14.1469 69 20.9312 69 34.5V34.5C69 48.0688 69 54.8531 65.8443 59.7828C64.2857 62.2177 62.2177 64.2857 59.7828 65.8443C54.8531 69 48.0688 69 34.5 69V69C20.9312 69 14.1469 69 9.21723 65.8443C6.78235 64.2857 4.71433 62.2177 3.15566 59.7828C0 54.8531 0 48.0688 0 34.5V34.5Z" fill="#181717"/>
<path d="M47.3333 50V46.6667C47.3333 44.8986 46.631 43.2029 45.3807 41.9526C44.1305 40.7024 42.4348 40 40.6667 40H27.3334C25.5652 40 23.8695 40.7024 22.6193 41.9526C21.3691 43.2029 20.6667 44.8986 20.6667 46.6667V50" stroke="white" stroke-width="1.5" stroke-linecap="round" stroke-linejoin="round"/>
<path d="M34 33.3333C37.6819 33.3333 40.6666 30.3486 40.6666 26.6667C40.6666 22.9848 37.6819 20 34 20C30.3181 20 27.3333 22.9848 27.3333 26.6667C27.3333 30.3486 30.3181 33.3333 34 33.3333Z" stroke="white" stroke-width="1.5" stroke-linecap="round" stroke-linejoin="round"/>
</svg>
