<svg width="69" height="69" viewBox="0 0 69 69" fill="none" xmlns="http://www.w3.org/2000/svg">
<path d="M0 34.5C0 20.9312 0 14.1469 3.15566 9.21723C4.71433 6.78235 6.78235 4.71433 9.21723 3.15566C14.1469 0 20.9312 0 34.5 0V0C48.0688 0 54.8531 0 59.7828 3.15566C62.2177 4.71433 64.2857 6.78235 65.8443 9.21723C69 14.1469 69 20.9312 69 34.5V34.5C69 48.0688 69 54.8531 65.8443 59.7828C64.2857 62.2177 62.2177 64.2857 59.7828 65.8443C54.8531 69 48.0688 69 34.5 69V69C20.9312 69 14.1469 69 9.21723 65.8443C6.78235 64.2857 4.71433 62.2177 3.15566 59.7828C0 54.8531 0 48.0688 0 34.5V34.5Z" fill="#181717"/>
<path d="M34.9971 24.1973C29.2195 24.1973 24.5195 28.897 24.5195 34.6748C24.5182 38.0792 26.1721 41.272 28.9538 43.2352V46.3322C28.9538 46.4437 28.9978 46.5506 29.0766 46.6294C29.1557 46.7082 29.2625 46.7525 29.374 46.7522H40.6259C40.7372 46.7525 40.8443 46.7082 40.9231 46.6294C41.0019 46.5506 41.0462 46.4437 41.0459 46.3322V43.2315C43.8242 41.2676 45.4754 38.0767 45.4744 34.6745C45.4744 28.8977 40.7746 24.1976 34.9968 24.1976L34.9971 24.1973ZM40.3906 42.6654C40.2748 42.7421 40.2046 42.8712 40.2028 43.01V45.9098H29.7916V43.0137C29.7916 42.8739 29.7222 42.7435 29.6062 42.6654C26.9486 40.8741 25.356 37.8785 25.3573 34.6735C25.3573 29.3599 29.6832 25.0366 34.9943 25.0366C40.3054 25.0366 44.6312 29.3624 44.6312 34.6735C44.6336 37.8768 43.0444 40.8717 40.3905 42.6654L40.3906 42.6654Z" fill="#D9CECE"/>
<path d="M40.563 48.4854H29.4345C29.209 48.4948 29.0312 48.6804 29.0312 48.9059C29.0312 49.1316 29.209 49.317 29.4345 49.3264H40.563C40.7885 49.317 40.9663 49.1316 40.9663 48.9059C40.9663 48.6804 40.7885 48.4948 40.563 48.4854Z" fill="#D9CECE"/>
<path d="M39.6318 51.0967H30.3656C30.1336 51.0967 29.9453 51.2847 29.9453 51.5167C29.9453 51.7487 30.1336 51.937 30.3656 51.937H39.6318C39.8638 51.937 40.0521 51.7487 40.0521 51.5167C40.0521 51.2847 39.8638 51.0967 39.6318 51.0967Z" fill="#D9CECE"/>
<path d="M34.9991 31.292C34.0876 31.292 33.2135 31.6541 32.5691 32.2986C31.9247 32.943 31.5625 33.8171 31.5625 34.7286C31.5625 35.6402 31.9246 36.5142 32.5691 37.1586C33.2135 37.8031 34.0876 38.1652 34.9991 38.1652C35.9107 38.1652 36.7847 37.8031 37.4291 37.1586C38.0736 36.5142 38.4357 35.6402 38.4357 34.7286C38.4344 33.8176 38.072 32.9441 37.4279 32.2999C36.7837 31.6558 35.9101 31.2933 34.9992 31.2921L34.9991 31.292ZM34.9991 37.3246V37.3249C34.3105 37.3251 33.65 37.0518 33.163 36.5647C32.6759 36.0779 32.4022 35.4178 32.402 34.7291C32.402 34.0404 32.6754 33.38 33.1622 32.8929C33.6492 32.4059 34.3096 32.1322 34.998 32.1322C35.6867 32.1322 36.3471 32.4056 36.8342 32.8926C37.321 33.3794 37.5946 34.0398 37.5946 34.7285C37.5939 35.4167 37.3202 36.0765 36.8337 36.5634C36.3471 37.0499 35.6872 37.3238 34.9991 37.3248V37.3246Z" fill="#D9CECE"/>
<path d="M39.9696 31.9781L40.9228 30.7851V30.7854C41.0564 30.618 41.0427 30.3771 40.8914 30.2258L39.4852 28.8188H39.4849C39.3336 28.6672 39.0924 28.6536 38.9248 28.7874L37.7326 29.7406C37.3655 29.5452 36.9793 29.3879 36.5802 29.2713L36.4095 27.7382H36.4092C36.3862 27.5253 36.2063 27.364 35.9921 27.3643H34.0043C33.7904 27.364 33.6102 27.5248 33.5864 27.7374L33.4157 29.2706C33.0106 29.39 32.6204 29.5547 32.252 29.761L31.0394 28.7875C30.8718 28.6537 30.6306 28.6673 30.4792 28.8189L29.0731 30.2258H29.0728C28.9214 30.3772 28.9078 30.6181 29.0414 30.7854L30.0128 32.001C29.8117 32.3631 29.6525 32.7473 29.5384 33.1455L28.0067 33.3162C27.7941 33.3398 27.6331 33.5194 27.6328 33.7334V35.7235C27.6331 35.9375 27.7941 36.1171 28.0067 36.1407L29.5384 36.3114C29.6525 36.711 29.8115 37.0962 30.0128 37.4596L29.0406 38.6752C28.907 38.8425 28.9206 39.0834 29.0722 39.2348L30.4784 40.641C30.6298 40.7921 30.8704 40.8057 31.0378 40.6726L32.2491 39.7041C32.618 39.9083 33.009 40.0707 33.4141 40.188L33.5848 41.7211H33.5851C33.6089 41.9338 33.7888 42.0945 34.003 42.0943H35.9921C36.2063 42.0943 36.3862 41.9332 36.4092 41.7203L36.5799 40.188H36.5802C36.9937 40.0686 37.3922 39.902 37.768 39.6915L38.9558 40.6447C39.1234 40.778 39.3643 40.7644 39.5159 40.6133L40.9228 39.2071V39.2068C41.0739 39.0552 41.087 38.8143 40.9537 38.6467L39.9925 37.4377C40.1946 37.0659 40.3543 36.6723 40.4683 36.2646L41.9881 36.096C42.201 36.0721 42.362 35.8922 42.362 35.6781V33.6903C42.362 33.4761 42.201 33.2962 41.9881 33.2724L40.4418 33.1009C40.3253 32.7107 40.1672 32.3344 39.9697 31.9783L39.9696 31.9781ZM41.524 35.3032L40.221 35.4498L40.0948 35.4624H40.0951C39.9152 35.4805 39.7675 35.6122 39.7285 35.7887C39.6111 36.3129 39.4069 36.8136 39.1244 37.2705C39.0207 37.4378 39.0474 37.6546 39.188 37.7924L40.0678 38.8738L39.1888 39.7471L38.1932 38.9508L38.1476 38.8958C38.0117 38.7337 37.7768 38.6973 37.5985 38.8107C37.1348 39.1077 36.6234 39.3224 36.0865 39.4457C35.8959 39.4894 35.7605 39.6591 35.7603 39.855L35.6173 41.2481H34.3798L34.2368 39.9621V39.8521C34.2368 39.6578 34.0556 39.4774 33.8665 39.4321V39.4318C33.3591 39.3121 32.8746 39.1102 32.4323 38.8342C32.2789 38.7381 32.0814 38.7512 31.9419 38.8664L30.8054 39.7777L29.9308 38.9031L30.7586 37.8678L30.8518 37.746L30.8515 37.7463C30.9578 37.6077 30.9675 37.4182 30.8759 37.2697C30.6025 36.8311 30.4037 36.35 30.2877 35.8465C30.2513 35.6852 30.123 35.5608 29.9607 35.5292L29.8206 35.5006L29.7855 35.4954L28.476 35.3487V34.1097L29.8083 33.963L29.9468 33.9402C30.1147 33.912 30.249 33.7852 30.287 33.6192C30.4035 33.1128 30.6038 32.6296 30.8795 32.1895C30.9715 32.0405 30.9615 31.8499 30.8544 31.7113L29.9335 30.5558L30.8081 29.6812L31.8267 30.4942L31.9395 30.5903C32.0851 30.7145 32.2962 30.7244 32.4528 30.6144L32.4784 30.5953C32.9207 30.324 33.4039 30.1261 33.909 30.0088C34.1001 29.9653 34.2358 29.7951 34.2352 29.599L34.3782 28.2059H35.6157L35.7587 29.4926V29.6034H35.759C35.7598 29.7987 35.8949 29.9679 36.0853 30.0119C36.6066 30.1326 37.106 30.3348 37.5647 30.6108C37.7239 30.7084 37.9284 30.6891 38.0662 30.5631L39.1615 29.6788L40.0361 30.5535L39.2134 31.5799L39.2137 31.5802C39.2116 31.5825 39.2095 31.5854 39.2079 31.5883L39.1257 31.6962V31.6959C39.0191 31.8517 39.0238 32.0583 39.1375 32.2091C39.3993 32.638 39.5923 33.1055 39.7094 33.5941C39.7539 33.7808 39.9194 33.9135 40.111 33.9167L41.5245 34.0633L41.524 35.3032Z" fill="#D9CECE"/>
<path d="M23.6424 42.5193L20.8489 44.4564C20.6976 44.5612 20.6321 44.7521 20.6874 44.9275C20.7426 45.1032 20.9055 45.2224 21.0893 45.2218C21.1747 45.2226 21.2582 45.197 21.3284 45.1485L24.1227 43.2085C24.307 43.0736 24.35 42.8165 24.2193 42.6292C24.0889 42.442 23.8326 42.393 23.6424 42.5193L23.6424 42.5193Z" fill="#D9CECE"/>
<path d="M21.242 33.8115C21.241 33.58 21.0527 33.393 20.8212 33.3936L17.42 33.4135C17.188 33.4135 17 33.6015 17 33.8335C17 34.0655 17.188 34.2535 17.42 34.2535L20.822 34.2336V34.2338C20.9339 34.2338 21.041 34.1893 21.1198 34.11C21.1989 34.0306 21.2428 33.9233 21.2421 33.8115L21.242 33.8115Z" fill="#D9CECE"/>
<path d="M24.9544 25.337C25.0298 25.2548 25.0694 25.1461 25.0647 25.0348C25.06 24.9233 25.011 24.8185 24.9288 24.7431L22.4184 22.4445C22.3367 22.367 22.2272 22.3257 22.1146 22.3293C22.002 22.3333 21.896 22.3822 21.8198 22.4652C21.7436 22.548 21.7038 22.6582 21.7095 22.7706C21.7153 22.8831 21.7658 22.9887 21.8502 23.0633L24.3577 25.3627C24.4396 25.4381 24.5483 25.4776 24.6596 25.4729C24.7709 25.4679 24.8756 25.4192 24.9508 25.337L24.9544 25.337Z" fill="#D9CECE"/>
<path d="M49.1494 44.4553L46.3559 42.5182C46.1655 42.3885 45.906 42.4365 45.7743 42.6255C45.6429 42.8148 45.6884 43.0749 45.8764 43.2082L48.6707 45.1482C48.7409 45.1967 48.8242 45.2223 48.9095 45.2215C49.0939 45.2221 49.257 45.1027 49.3123 44.9267C49.3672 44.751 49.3013 44.5598 49.1494 44.4554L49.1494 44.4553Z" fill="#D9CECE"/>
<path d="M52.5791 33.4144L49.1778 33.3945C48.9458 33.3945 48.7578 33.5825 48.7578 33.8145C48.7578 34.0465 48.9458 34.2348 49.1778 34.2348L52.5799 34.2547V34.2545C52.8119 34.2545 53.0001 34.0664 53.0001 33.8344C53.0001 33.6024 52.8119 33.4144 52.5799 33.4144H52.5791Z" fill="#D9CECE"/>
<path d="M48.1746 22.47C48.0175 22.2992 47.752 22.2877 47.5807 22.4443L45.0739 24.7429C44.9901 24.8178 44.9399 24.923 44.9341 25.0351C44.9286 25.1474 44.9681 25.2571 45.0438 25.3402C45.1198 25.4229 45.2258 25.4719 45.3379 25.4761C45.4502 25.4802 45.5597 25.4394 45.6414 25.3624L48.1489 23.063C48.2311 22.9879 48.2801 22.8831 48.2848 22.7719C48.2895 22.6606 48.25 22.5519 48.1745 22.4699L48.1746 22.47Z" fill="#D9CECE"/>
<path d="M34.9976 22.2423C35.1092 22.2423 35.216 22.1978 35.2946 22.119C35.3734 22.0399 35.4174 21.9331 35.4171 21.8215L35.4114 18.4195H35.4111C35.4108 18.1904 35.2267 18.0037 34.9976 18C34.8861 18 34.7792 18.0445 34.7007 18.1233C34.6219 18.2024 34.5779 18.3095 34.5781 18.4208L34.5839 21.8228H34.5841C34.5844 22.0522 34.7685 22.2387 34.9976 22.2423Z" fill="#D9CECE"/>
</svg>
